<svg width="41" height="29" viewBox="0 0 41 29" fill="none" xmlns="http://www.w3.org/2000/svg">
<path d="M40 26V3C40 2.46957 39.7893 1.96086 39.4142 1.58579C39.0391 1.21071 38.5304 1 38 1H3C2.46957 1 1.96086 1.21071 1.58579 1.58579C1.21071 1.96086 1 2.46957 1 3V26C1 26.5304 1.21071 27.0391 1.58579 27.4142C1.96086 27.7893 2.46957 28 3 28H38C38.5304 28 39.0391 27.7893 39.4142 27.4142C39.7893 27.0391 40 26.5304 40 26Z" stroke="black" stroke-linecap="round" stroke-linejoin="round"/>
<path d="M40 5.48096L20.5 14.5L1 5.48096" stroke="black" stroke-linecap="round" stroke-linejoin="round"/>
</svg>
